<svg xmlns="http://www.w3.org/2000/svg" width="70mm" height="80mm" viewBox="0 0 70 80"><rect width="70" height="80" fill="white"/><g fill="black" shape-rendering="crispEdges"><rect x="10.00000" y="10.00000" width="8.33333" height="8.33333"/><rect x="18.33333" y="10.00000" width="8.33333" height="8.33333"/><rect x="26.66667" y="10.00000" width="8.33333" height="8.33333"/><rect x="35.00000" y="10.00000" width="8.33333" height="8.33333"/><rect x="43.33333" y="10.00000" width="8.33333" height="8.33333"/><rect x="51.66667" y="10.00000" width="8.33333" height="8.33333"/><rect x="10.00000" y="18.33333" width="8.33333" height="8.33333"/><rect x="26.66667" y="18.33333" width="8.33333" height="8.33333"/><rect x="51.66667" y="18.33333" width="8.33333" height="8.33333"/><rect x="10.00000" y="26.66667" width="8.33333" height="8.33333"/><rect x="18.33333" y="26.66667" width="8.33333" height="8.33333"/><rect x="35.00000" y="26.66667" width="8.33333" height="8.33333"/><rect x="51.66667" y="26.66667" width="8.33333" height="8.33333"/><rect x="10.00000" y="35.00000" width="8.33333" height="8.33333"/><rect x="18.33333" y="35.00000" width="8.33333" height="8.33333"/><rect x="26.66667" y="35.00000" width="8.33333" height="8.33333"/><rect x="51.66667" y="35.00000" width="8.33333" height="8.33333"/><rect x="10.00000" y="43.33333" width="8.33333" height="8.33333"/><rect x="18.33333" y="43.33333" width="8.33333" height="8.33333"/><rect x="26.66667" y="43.33333" width="8.33333" height="8.33333"/><rect x="43.33333" y="43.33333" width="8.33333" height="8.33333"/><rect x="51.66667" y="43.33333" width="8.33333" height="8.33333"/><rect x="10.00000" y="51.66667" width="8.33333" height="8.33333"/><rect x="18.33333" y="51.66667" width="8.33333" height="8.33333"/><rect x="26.66667" y="51.66667" width="8.33333" height="8.33333"/><rect x="35.00000" y="51.66667" width="8.33333" height="8.33333"/><rect x="43.33333" y="51.66667" width="8.33333" height="8.33333"/><rect x="51.66667" y="51.66667" width="8.33333" height="8.33333"/></g><g font-family="sans-serif" font-size="2.7" text-anchor="middle"><text x="35" y="66">Jungle Market · ArUco 4x4_50 · ID 0</text><text x="35" y="71">Black square: 5 cm × 5 cm</text><text x="35" y="76">Print at 100%. Check with a ruler.</text></g></svg>